# xmcd
#
# Track frame offsets: 
#        150
#        14338
#        30270
#        49515
#        68072
#        86939
#        101129
#        116039
#        130778
#        147477
#        164136
#        178026
#        191603
#        207466
#        221853
#
# Disc length: 3159 seconds
#
# Revision: 0
# Processed by: cddbd v1.5.2PL0 Copyright (c) Steve Scherf et al.
# Submitted via: ExactAudioCopy v1.0b1
#
DISCID=e50c550f
DTITLE=Burton Gaar - Fried Grits and Greens
DYEAR=2011
DGENRE=Blues
TTITLE0=Fried Grits and Greens
TTITLE1=Last Train To Memphis
TTITLE2=Trouble
TTITLE3=Drowning In the Blues
TTITLE4=One Step Away
TTITLE5=Sugarfied
TTITLE6=Turn Around
TTITLE7=Wake Up and Watch me Leave
TTITLE8=So Over You
TTITLE9=Strung Out On the Blues
TTITLE10=Ain't She A Mess
TTITLE11=One of Us Is Leaving
TTITLE12=That's All She wrote
TTITLE13=Love Doctor and Nurse
TTITLE14=Hold It Against You
EXTD=
EXTT0=
EXTT1=
EXTT2=
EXTT3=
EXTT4=
EXTT5=
EXTT6=
EXTT7=
EXTT8=
EXTT9=
EXTT10=
EXTT11=
EXTT12=
EXTT13=
EXTT14=
PLAYORDER=
